<svg width="60" height="60" viewBox="0 0 60 60" fill="none" xmlns="http://www.w3.org/2000/svg">
<g clip-path="url(#clip0_9_48)">
<path d="M30 60C46.5685 60 60 46.5685 60 30C60 13.4315 46.5685 0 30 0C13.4315 0 0 13.4315 0 30C0 46.5685 13.4315 60 30 60Z" fill="#4353FF"/>
<path d="M38.8125 26.4375L36.0937 35.0063C36.0937 34.35 34.2187 20.1375 34.2187 20.1375C29.9062 20.1375 27.6187 23.1938 26.4187 26.4375L23.1 35.025C23.1 34.4063 22.6312 26.5125 22.6312 26.5125C22.4712 24.8037 21.69 23.2129 20.4356 22.0414C19.1812 20.87 17.5408 20.1993 15.825 20.1563L19.35 41.6813C23.85 41.6813 26.2875 38.625 27.5437 35.3813L30.3562 28.0688C30.3562 28.3688 32.2312 41.6813 32.2312 41.6813C34.0714 41.6789 35.8629 41.0906 37.3462 40.0017C38.8296 38.9128 39.9276 37.3799 40.4812 35.625L46.8562 20.1375C42.3562 20.1375 39.9938 23.1938 38.7938 26.4375H38.8125Z" fill="white"/>
</g>
<defs>
<clipPath id="clip0_9_48">
<rect width="60" height="60" fill="white"/>
</clipPath>
</defs>
</svg>
