<svg width="103" height="26" viewBox="0 0 103 26" fill="none" xmlns="http://www.w3.org/2000/svg">
<path d="M17.5051 7.364V20H14.4271V12.422L11.6011 20H9.1171L6.2731 12.404V20H3.1951V7.364H6.8311L10.3771 16.112L13.8871 7.364H17.5051ZM29.6365 9.956V20H26.5585V18.632C26.2465 19.076 25.8205 19.436 25.2805 19.712C24.7525 19.976 24.1645 20.108 23.5165 20.108C22.7485 20.108 22.0705 19.94 21.4825 19.604C20.8945 19.256 20.4385 18.758 20.1145 18.11C19.7905 17.462 19.6285 16.7 19.6285 15.824V9.956H22.6885V15.41C22.6885 16.082 22.8625 16.604 23.2105 16.976C23.5585 17.348 24.0265 17.534 24.6145 17.534C25.2145 17.534 25.6885 17.348 26.0365 16.976C26.3845 16.604 26.5585 16.082 26.5585 15.41V9.956H29.6365ZM35.9334 20.144C35.0574 20.144 34.2774 19.994 33.5934 19.694C32.9094 19.394 32.3694 18.986 31.9734 18.47C31.5774 17.942 31.3554 17.354 31.3074 16.706H34.3494C34.3854 17.054 34.5474 17.336 34.8354 17.552C35.1234 17.768 35.4774 17.876 35.8974 17.876C36.2814 17.876 36.5754 17.804 36.7794 17.66C36.9954 17.504 37.1034 17.306 37.1034 17.066C37.1034 16.778 36.9534 16.568 36.6534 16.436C36.3534 16.292 35.8674 16.136 35.1954 15.968C34.4754 15.8 33.8754 15.626 33.3954 15.446C32.9154 15.254 32.5014 14.96 32.1534 14.564C31.8054 14.156 31.6314 13.61 31.6314 12.926C31.6314 12.35 31.7874 11.828 32.0994 11.36C32.4234 10.88 32.8914 10.502 33.5034 10.226C34.1274 9.95 34.8654 9.812 35.7174 9.812C36.9774 9.812 37.9674 10.124 38.6874 10.748C39.4194 11.372 39.8394 12.2 39.9474 13.232H37.1034C37.0554 12.884 36.8994 12.608 36.6354 12.404C36.3834 12.2 36.0474 12.098 35.6274 12.098C35.2674 12.098 34.9914 12.17 34.7994 12.314C34.6074 12.446 34.5114 12.632 34.5114 12.872C34.5114 13.16 34.6614 13.376 34.9614 13.52C35.2734 13.664 35.7534 13.808 36.4014 13.952C37.1454 14.144 37.7514 14.336 38.2194 14.528C38.6874 14.708 39.0954 15.008 39.4434 15.428C39.8034 15.836 39.9894 16.388 40.0014 17.084C40.0014 17.672 39.8334 18.2 39.4974 18.668C39.1734 19.124 38.6994 19.484 38.0754 19.748C37.4634 20.012 36.7494 20.144 35.9334 20.144ZM47.4826 17.39V20H45.9166C44.8006 20 43.9306 19.73 43.3066 19.19C42.6826 18.638 42.3706 17.744 42.3706 16.508V12.512H41.1466V9.956H42.3706V7.508H45.4486V9.956H47.4646V12.512H45.4486V16.544C45.4486 16.844 45.5206 17.06 45.6646 17.192C45.8086 17.324 46.0486 17.39 46.3846 17.39H47.4826ZM48.5851 14.96C48.5851 13.928 48.7771 13.022 49.1611 12.242C49.5571 11.462 50.0911 10.862 50.7631 10.442C51.4351 10.022 52.1851 9.812 53.0131 9.812C53.7211 9.812 54.3391 9.956 54.8671 10.244C55.4071 10.532 55.8211 10.91 56.1091 11.378V9.956H59.1871V20H56.1091V18.578C55.8091 19.046 55.3891 19.424 54.8491 19.712C54.3211 20 53.7031 20.144 52.9951 20.144C52.1791 20.144 51.4351 19.934 50.7631 19.514C50.0911 19.082 49.5571 18.476 49.1611 17.696C48.7771 16.904 48.5851 15.992 48.5851 14.96ZM56.1091 14.978C56.1091 14.21 55.8931 13.604 55.4611 13.16C55.0411 12.716 54.5251 12.494 53.9131 12.494C53.3011 12.494 52.7791 12.716 52.3471 13.16C51.9271 13.592 51.7171 14.192 51.7171 14.96C51.7171 15.728 51.9271 16.34 52.3471 16.796C52.7791 17.24 53.3011 17.462 53.9131 17.462C54.5251 17.462 55.0411 17.24 55.4611 16.796C55.8931 16.352 56.1091 15.746 56.1091 14.978ZM66.4539 12.512H64.7979V20H61.7199V12.512H60.6039V9.956H61.7199V9.668C61.7199 8.432 62.0739 7.496 62.7819 6.86C63.4899 6.212 64.5279 5.888 65.8959 5.888C66.1239 5.888 66.2919 5.894 66.3999 5.906V8.516C65.8119 8.48 65.3979 8.564 65.1579 8.768C64.9179 8.972 64.7979 9.338 64.7979 9.866V9.956H66.4539V12.512ZM77.3682 14.816C77.3682 15.104 77.3502 15.404 77.3142 15.716H70.3482C70.3962 16.34 70.5942 16.82 70.9422 17.156C71.3022 17.48 71.7402 17.642 72.2562 17.642C73.0242 17.642 73.5582 17.318 73.8582 16.67H77.1342C76.9662 17.33 76.6602 17.924 76.2162 18.452C75.7842 18.98 75.2382 19.394 74.5782 19.694C73.9182 19.994 73.1802 20.144 72.3642 20.144C71.3802 20.144 70.5042 19.934 69.7362 19.514C68.9682 19.094 68.3682 18.494 67.9362 17.714C67.5042 16.934 67.2882 16.022 67.2882 14.978C67.2882 13.934 67.4982 13.022 67.9182 12.242C68.3502 11.462 68.9502 10.862 69.7182 10.442C70.4862 10.022 71.3682 9.812 72.3642 9.812C73.3362 9.812 74.2002 10.016 74.9562 10.424C75.7122 10.832 76.3002 11.414 76.7202 12.17C77.1522 12.926 77.3682 13.808 77.3682 14.816ZM74.2182 14.006C74.2182 13.478 74.0382 13.058 73.6782 12.746C73.3182 12.434 72.8682 12.278 72.3282 12.278C71.8122 12.278 71.3742 12.428 71.0142 12.728C70.6662 13.028 70.4502 13.454 70.3662 14.006H74.2182ZM88.7824 20.126C87.5944 20.126 86.5024 19.85 85.5064 19.298C84.5224 18.746 83.7364 17.978 83.1484 16.994C82.5724 15.998 82.2844 14.882 82.2844 13.646C82.2844 12.41 82.5724 11.3 83.1484 10.316C83.7364 9.332 84.5224 8.564 85.5064 8.012C86.5024 7.46 87.5944 7.184 88.7824 7.184C89.9704 7.184 91.0564 7.46 92.0404 8.012C93.0364 8.564 93.8164 9.332 94.3804 10.316C94.9564 11.3 95.2444 12.41 95.2444 13.646C95.2444 14.882 94.9564 15.998 94.3804 16.994C93.8044 17.978 93.0244 18.746 92.0404 19.298C91.0564 19.85 89.9704 20.126 88.7824 20.126ZM88.7824 17.318C89.7904 17.318 90.5944 16.982 91.1944 16.31C91.8064 15.638 92.1124 14.75 92.1124 13.646C92.1124 12.53 91.8064 11.642 91.1944 10.982C90.5944 10.31 89.7904 9.974 88.7824 9.974C87.7624 9.974 86.9464 10.304 86.3344 10.964C85.7344 11.624 85.4344 12.518 85.4344 13.646C85.4344 14.762 85.7344 15.656 86.3344 16.328C86.9464 16.988 87.7624 17.318 88.7824 17.318ZM98.3968 20.144C97.8568 20.144 97.4128 19.988 97.0648 19.676C96.7288 19.352 96.5608 18.956 96.5608 18.488C96.5608 18.008 96.7288 17.606 97.0648 17.282C97.4128 16.958 97.8568 16.796 98.3968 16.796C98.9248 16.796 99.3568 16.958 99.6928 17.282C100.041 17.606 100.215 18.008 100.215 18.488C100.215 18.956 100.041 19.352 99.6928 19.676C99.3568 19.988 98.9248 20.144 98.3968 20.144Z" fill="#004236"/>
<rect x="2" y="24" width="95" height="2" fill="#004236"/>
</svg>
